<svg xmlns="http://www.w3.org/2000/svg" enable-background="new 0 0 64 64" viewBox="0 0 64 64"><path fill="#91D0F3" d="M43,22c-0.9,0-1.8,0.2-2.7,0.5C38.9,18.7,35.3,16,31,16c-5.5,0-10,4.5-10,10c0,0.1,0,0.2,0,0.4c-0.6-0.2-1.3-0.4-2-0.4c-3.3,0-6,2.7-6,6s2.7,6,6,6h24c4.4,0,8-3.6,8-8S47.4,22,43,22z"/><path fill="#85BFDF" d="M47.6,23.4c0.9,1.3,1.4,2.9,1.4,4.6c0,4.4-3.6,8-8,8H17c-1.1,0-2.2-0.3-3.1-0.9c1.1,1.7,2.9,2.9,5.1,2.9h24c4.4,0,8-3.6,8-8C51,27.3,49.6,24.9,47.6,23.4z"/><path fill="#4B86C5" d="M19 44c-.3 0-.5-.1-.7-.3-.4-.4-.4-1 0-1.4l2-2c.4-.4 1-.4 1.4 0s.4 1 0 1.4l-2 2C19.5 43.9 19.3 44 19 44zM27 44c-.3 0-.5-.1-.7-.3-.4-.4-.4-1 0-1.4l2-2c.4-.4 1-.4 1.4 0s.4 1 0 1.4l-2 2C27.5 43.9 27.3 44 27 44zM34 44c-.3 0-.5-.1-.7-.3-.4-.4-.4-1 0-1.4l2-2c.4-.4 1-.4 1.4 0s.4 1 0 1.4l-2 2C34.5 43.9 34.3 44 34 44zM41 44c-.3 0-.5-.1-.7-.3-.4-.4-.4-1 0-1.4l2-2c.4-.4 1-.4 1.4 0s.4 1 0 1.4l-2 2C41.5 43.9 41.3 44 41 44zM22 48c-.3 0-.5-.1-.7-.3-.4-.4-.4-1 0-1.4l2-2c.4-.4 1-.4 1.4 0s.4 1 0 1.4l-2 2C22.5 47.9 22.3 48 22 48zM29 49c-.3 0-.5-.1-.7-.3-.4-.4-.4-1 0-1.4l2-2c.4-.4 1-.4 1.4 0s.4 1 0 1.4l-2 2C29.5 48.9 29.3 49 29 49zM36 49c-.3 0-.5-.1-.7-.3-.4-.4-.4-1 0-1.4l2-2c.4-.4 1-.4 1.4 0s.4 1 0 1.4l-2 2C36.5 48.9 36.3 49 36 49z"/></svg>