<svg xmlns="http://www.w3.org/2000/svg" xmlns:xlink="http://www.w3.org/1999/xlink" viewBox="0 0 96 96"><defs><linearGradient id="a" x1="55.4" x2="76.45" y1="46.23" y2="25.18" gradientUnits="userSpaceOnUse"><stop offset="0" stop-color="#ffb300"/><stop offset=".2" stop-color="#ffb606"/><stop offset=".46" stop-color="#ffbd18"/><stop offset=".76" stop-color="#ffc934"/><stop offset="1" stop-color="#ffd54f"/></linearGradient><linearGradient id="b" x1="60.84" x2="67.16" y1="17.66" y2="11.34" xlink:href="#a"/><linearGradient id="c" x1="45.26" x2="48.09" y1="23.09" y2="20.26" xlink:href="#a"/><linearGradient id="d" x1="85.34" x2="91.66" y1="42.16" y2="35.84" xlink:href="#a"/><linearGradient id="e" x1="77.44" x2="85.21" y1="25.56" y2="17.79" xlink:href="#a"/><linearGradient id="f" x1="48" x2="48" y1="86.25" y2="31.48" gradientUnits="userSpaceOnUse"><stop offset="0" stop-color="#4286f4"/><stop offset="1" stop-color="#81d4fa"/></linearGradient></defs><g data-name="cloudy"><path fill="url(#a)" d="M64,21.5A16.92,16.92,0,0,0,48.74,31a2,2,0,0,0,.58,2.47,26.86,26.86,0,0,1,5.09,5.07,2,2,0,0,0,2.59.51,8,8,0,0,1,11.64,4.56,2,2,0,0,0,2,1.4c.27,0,.54,0,.82,0a17.85,17.85,0,0,1,5.8.94,2,2,0,0,0,.64.1,2,2,0,0,0,1.85-1.25A16.73,16.73,0,0,0,81,38.5,17,17,0,0,0,64,21.5Z"/><path fill="url(#b)" d="M64,20a2,2,0,0,1-2-2V11a2,2,0,0,1,4,0v7A2,2,0,0,1,64,20Z"/><path fill="url(#c)" d="M50.56,25.56a2,2,0,0,1-2.82,0l-5-4.94a2,2,0,1,1,2.83-2.83l4.94,4.95A2,2,0,0,1,50.56,25.56Z"/><path fill="url(#d)" d="M83,39a2,2,0,0,1,2-2h7a2,2,0,0,1,0,4H85A2,2,0,0,1,83,39Z"/><path fill="url(#e)" d="M77.44,25.56a2,2,0,0,1,0-2.82l4.94-4.95a2,2,0,0,1,2.83,2.83l-4.95,4.94A2,2,0,0,1,77.44,25.56Z"/><path fill="url(#f)" d="M88.1,48.31A22.61,22.61,0,0,0,71.91,41a12,12,0,0,0-15.35-6.15A30.72,30.72,0,0,0,33,24,31,31,0,0,0,2.08,57.28C3.2,72.85,17.63,86,33.59,86H71c11.81,0,21.85-9,22.87-20.46A22.31,22.31,0,0,0,88.1,48.31Z"/></g></svg>