<svg xmlns="http://www.w3.org/2000/svg" viewBox="0 0 64 64"><g data-name="sun rain"><path fill="#11a9f3" d="M16.62 53.77a2.19 2.19 0 0 0 2.2 2.2C21.19 55.9 21.54 51 21.54 51S16.69 51.4 16.62 53.77zM9.72 46.88a2.19 2.19 0 0 0 2.2 2.2c2.37-.07 2.72-4.92 2.72-4.92S9.79 44.5 9.72 46.88zM7.69 55.8A2.19 2.19 0 0 0 9.89 58c2.37-.07 2.72-4.92 2.72-4.92S7.77 53.43 7.69 55.8z"/><path fill="#feea3a" d="M58,18H52.73a7.74,7.74,0,0,0-1.55-3.75l3.73-3.73A1,1,0,0,0,53.49,9.1l-3.73,3.73A7.74,7.74,0,0,0,46,11.27V6a1,1,0,0,0-2,0v5.27a7.74,7.74,0,0,0-3.75,1.56L36.52,9.1a1,1,0,0,0-1.41,1.41l3.74,3.74a7.78,7.78,0,0,0,10.9,10.9l3.75,3.75a1,1,0,0,0,1.41-1.41l-3.74-3.74A7.74,7.74,0,0,0,52.73,20H58a1,1,0,0,0,0-2Z"/><path fill="#11a9f3" d="M50 30.08a7.62 7.62 0 0 1-7.62 7.61H12.77a6.77 6.77 0 0 1 0-13.54 6.85 6.85 0 0 1 2.6.52 11.85 11.85 0 0 1 23.38-1.28A7.6 7.6 0 0 1 49.7 28 7.37 7.37 0 0 1 50 30.08zM16.62 50.07a1 1 0 0 1-.71-1.71l4.19-4.19a1 1 0 0 1 1.41 1.41l-4.19 4.19A1 1 0 0 1 16.62 50.07z"/><path fill="#11a9f3" d="M23.29 43.4a1 1 0 0 1-.71-1.71L33.21 31.06a1 1 0 0 1 1.41 1.41L24 43.11A1 1 0 0 1 23.29 43.4zM16.9 42.89a1 1 0 0 1-.71-1.71L26.31 31.06a1 1 0 0 1 1.41 1.41L17.61 42.6A1 1 0 0 1 16.9 42.89zM28.46 45.13a1 1 0 0 1-.71-1.71L33.21 38a1 1 0 0 1 1.41 1.41l-5.46 5.46A1 1 0 0 1 28.46 45.13zM23.52 50.07a1 1 0 0 1-.71-1.71l3.07-3.07a1 1 0 0 1 1.41 1.41l-3.07 3.07A1 1 0 0 1 23.52 50.07z"/></g></svg>